<mxfile host="65bd71144e">
    <diagram id="_ft3-3bCcOT8JbGUYvpe" name="Page-1">
        <mxGraphModel dx="1561" dy="317" grid="1" gridSize="10" guides="1" tooltips="1" connect="1" arrows="1" fold="1" page="1" pageScale="1" pageWidth="827" pageHeight="1169" background="none" math="0" shadow="0">
            <root>
                <mxCell id="0"/>
                <mxCell id="1" parent="0"/>
                <mxCell id="20" value="" style="edgeStyle=none;html=1;" parent="1" source="3" edge="1">
                    <mxGeometry relative="1" as="geometry">
                        <mxPoint x="411.20000000000005" y="180" as="targetPoint"/>
                    </mxGeometry>
                </mxCell>
                <mxCell id="3" value="Inicio&amp;nbsp;&lt;br&gt;adivinar un numero del 0 al 99" style="strokeWidth=2;html=1;shape=mxgraph.flowchart.start_2;whiteSpace=wrap;" parent="1" vertex="1">
                    <mxGeometry x="319" y="70" width="190" height="80" as="geometry"/>
                </mxCell>
                <mxCell id="53" style="edgeStyle=none;html=1;exitX=0.5;exitY=1;exitDx=0;exitDy=0;entryX=0.5;entryY=0;entryDx=0;entryDy=0;fontColor=#F0F0F0;" parent="1" source="51" target="52" edge="1">
                    <mxGeometry relative="1" as="geometry"/>
                </mxCell>
                <mxCell id="51" value="numero aleatorio (99)" style="rounded=0;whiteSpace=wrap;html=1;fontColor=#F0F0F0;" parent="1" vertex="1">
                    <mxGeometry x="354" y="180" width="120" height="60" as="geometry"/>
                </mxCell>
                <mxCell id="61" style="edgeStyle=none;html=1;exitX=0.5;exitY=1;exitDx=0;exitDy=0;entryX=0.5;entryY=0;entryDx=0;entryDy=0;entryPerimeter=0;fontColor=#F0F0F0;" parent="1" source="52" edge="1">
                    <mxGeometry relative="1" as="geometry">
                        <mxPoint x="414" y="380" as="targetPoint"/>
                    </mxGeometry>
                </mxCell>
                <mxCell id="52" value="numero de intentos &amp;lt;-10" style="rounded=0;whiteSpace=wrap;html=1;fontColor=#F0F0F0;" parent="1" vertex="1">
                    <mxGeometry x="354" y="280" width="120" height="60" as="geometry"/>
                </mxCell>
                <mxCell id="72" style="edgeStyle=none;html=1;exitX=0.5;exitY=1;exitDx=0;exitDy=0;entryX=0.5;entryY=0;entryDx=0;entryDy=0;entryPerimeter=0;fontColor=#F0F0F0;" parent="1" source="64" target="71" edge="1">
                    <mxGeometry relative="1" as="geometry"/>
                </mxCell>
                <mxCell id="64" value="ingresar un numero" style="html=1;strokeWidth=2;shape=manualInput;whiteSpace=wrap;rounded=1;size=26;arcSize=11;fontColor=#F0F0F0;" parent="1" vertex="1">
                    <mxGeometry x="341" y="370" width="146" height="80" as="geometry"/>
                </mxCell>
                <mxCell id="74" value="NO" style="edgeStyle=none;html=1;exitX=1;exitY=0.5;exitDx=0;exitDy=0;exitPerimeter=0;fontColor=#F0F0F0;entryX=0.5;entryY=0;entryDx=0;entryDy=0;entryPerimeter=0;" parent="1" source="71" target="121" edge="1">
                    <mxGeometry x="-1" y="192" relative="1" as="geometry">
                        <mxPoint x="680" y="630" as="targetPoint"/>
                        <Array as="points">
                            <mxPoint x="681" y="550"/>
                        </Array>
                        <mxPoint x="-192" y="182" as="offset"/>
                    </mxGeometry>
                </mxCell>
                <mxCell id="76" value="SI" style="edgeStyle=none;html=1;exitX=0;exitY=0.5;exitDx=0;exitDy=0;exitPerimeter=0;fontColor=#F0F0F0;entryX=0.5;entryY=0;entryDx=0;entryDy=0;entryPerimeter=0;" parent="1" source="71" target="100" edge="1">
                    <mxGeometry x="-1" y="-244" relative="1" as="geometry">
                        <mxPoint x="235.49999999999955" y="620" as="targetPoint"/>
                        <Array as="points">
                            <mxPoint x="240" y="550"/>
                        </Array>
                        <mxPoint x="244" y="234" as="offset"/>
                    </mxGeometry>
                </mxCell>
                <mxCell id="71" value="num ingresado=num aleatorio" style="strokeWidth=2;html=1;shape=mxgraph.flowchart.decision;whiteSpace=wrap;fontColor=#F0F0F0;" parent="1" vertex="1">
                    <mxGeometry x="336" y="500" width="156" height="100" as="geometry"/>
                </mxCell>
                <mxCell id="84" value="Fin&amp;nbsp;" style="strokeWidth=2;html=1;shape=mxgraph.flowchart.terminator;whiteSpace=wrap;fontColor=#F0F0F0;" parent="1" vertex="1">
                    <mxGeometry x="630" y="780" width="100" height="60" as="geometry"/>
                </mxCell>
                <mxCell id="111" value="SI" style="edgeStyle=none;html=1;exitX=0;exitY=0.5;exitDx=0;exitDy=0;exitPerimeter=0;fontColor=#F0F0F0;entryX=0.5;entryY=1;entryDx=0;entryDy=0;entryPerimeter=0;" parent="1" source="100" target="124" edge="1">
                    <mxGeometry x="-0.5714" y="-10" relative="1" as="geometry">
                        <mxPoint x="80" y="620" as="targetPoint"/>
                        <Array as="points">
                            <mxPoint x="80" y="670"/>
                        </Array>
                        <mxPoint as="offset"/>
                    </mxGeometry>
                </mxCell>
                <mxCell id="115" value="NO" style="edgeStyle=none;html=1;exitX=1;exitY=0.5;exitDx=0;exitDy=0;exitPerimeter=0;fontColor=#F0F0F0;entryX=0.5;entryY=0;entryDx=0;entryDy=0;entryPerimeter=0;" parent="1" source="100" target="110" edge="1">
                    <mxGeometry x="-0.3333" y="10" relative="1" as="geometry">
                        <mxPoint x="370" y="670.4285714285716" as="targetPoint"/>
                        <Array as="points">
                            <mxPoint x="370" y="670"/>
                        </Array>
                        <mxPoint as="offset"/>
                    </mxGeometry>
                </mxCell>
                <mxCell id="100" value="num ingresado&amp;lt; num aleatorio" style="strokeWidth=2;html=1;shape=mxgraph.flowchart.decision;whiteSpace=wrap;fontColor=#F0F0F0;" parent="1" vertex="1">
                    <mxGeometry x="170" y="620" width="140" height="100" as="geometry"/>
                </mxCell>
                <mxCell id="117" style="edgeStyle=none;html=1;exitX=0;exitY=0.5;exitDx=0;exitDy=0;exitPerimeter=0;entryX=1;entryY=0.5;entryDx=0;entryDy=0;fontColor=#F0F0F0;entryPerimeter=0;" parent="1" source="110" target="123" edge="1">
                    <mxGeometry relative="1" as="geometry">
                        <mxPoint x="180" y="779.9999999999998" as="targetPoint"/>
                    </mxGeometry>
                </mxCell>
                <mxCell id="119" value="SI" style="edgeLabel;html=1;align=center;verticalAlign=middle;resizable=0;points=[];fontColor=#F0F0F0;" parent="117" vertex="1" connectable="0">
                    <mxGeometry x="-0.219" y="-5" relative="1" as="geometry">
                        <mxPoint y="-5" as="offset"/>
                    </mxGeometry>
                </mxCell>
                <mxCell id="110" value="num ingresado&amp;gt; num aleatorio" style="strokeWidth=2;html=1;shape=mxgraph.flowchart.decision;whiteSpace=wrap;fontColor=#F0F0F0;" parent="1" vertex="1">
                    <mxGeometry x="300" y="740" width="140" height="100" as="geometry"/>
                </mxCell>
                <mxCell id="122" style="edgeStyle=none;html=1;exitX=0.5;exitY=1;exitDx=0;exitDy=0;exitPerimeter=0;entryX=0.5;entryY=0;entryDx=0;entryDy=0;entryPerimeter=0;fontColor=#F0F0F0;" parent="1" source="121" target="84" edge="1">
                    <mxGeometry relative="1" as="geometry"/>
                </mxCell>
                <mxCell id="121" value="&lt;font style=&quot;font-size: 14px&quot;&gt;Exacto, has acertado&lt;/font&gt;" style="verticalLabelPosition=bottom;verticalAlign=top;html=1;shape=card;whiteSpace=wrap;size=20;arcSize=12;fontColor=#F0F0F0;" parent="1" vertex="1">
                    <mxGeometry x="630" y="630" width="100" height="60" as="geometry"/>
                </mxCell>
                <mxCell id="126" style="edgeStyle=none;html=1;exitX=0;exitY=0;exitDx=0;exitDy=40;exitPerimeter=0;fontSize=14;fontColor=#F0F0F0;entryX=0;entryY=0.5;entryDx=0;entryDy=0;" parent="1" source="123" target="125" edge="1">
                    <mxGeometry relative="1" as="geometry">
                        <mxPoint x="-40" y="380" as="targetPoint"/>
                        <Array as="points">
                            <mxPoint x="-40" y="800"/>
                            <mxPoint x="-40" y="380"/>
                        </Array>
                    </mxGeometry>
                </mxCell>
                <mxCell id="123" value="Demasiado grande" style="verticalLabelPosition=bottom;verticalAlign=top;html=1;shape=card;whiteSpace=wrap;size=20;arcSize=12;fontSize=14;fontColor=#F0F0F0;" parent="1" vertex="1">
                    <mxGeometry x="60" y="760" width="100" height="60" as="geometry"/>
                </mxCell>
                <mxCell id="128" style="edgeStyle=none;html=1;exitX=0.5;exitY=0;exitDx=0;exitDy=0;exitPerimeter=0;entryX=0.589;entryY=1.002;entryDx=0;entryDy=0;entryPerimeter=0;fontSize=14;fontColor=#F0F0F0;" parent="1" source="124" target="125" edge="1">
                    <mxGeometry relative="1" as="geometry"/>
                </mxCell>
                <mxCell id="124" value="Demasiado pequeÃ±o" style="verticalLabelPosition=bottom;verticalAlign=top;html=1;shape=card;whiteSpace=wrap;size=20;arcSize=12;fontSize=14;fontColor=#F0F0F0;" parent="1" vertex="1">
                    <mxGeometry x="30" y="520" width="100" height="60" as="geometry"/>
                </mxCell>
                <mxCell id="130" style="edgeStyle=none;html=1;exitX=0.5;exitY=0;exitDx=0;exitDy=0;entryX=0.5;entryY=1;entryDx=0;entryDy=0;entryPerimeter=0;fontSize=14;fontColor=#F0F0F0;" parent="1" source="125" target="129" edge="1">
                    <mxGeometry relative="1" as="geometry"/>
                </mxCell>
                <mxCell id="125" value="intentos &amp;lt;- intentos -1" style="rounded=0;whiteSpace=wrap;html=1;fontSize=14;fontColor=#F0F0F0;" parent="1" vertex="1">
                    <mxGeometry x="-10" y="350" width="150" height="60" as="geometry"/>
                </mxCell>
                <mxCell id="131" style="edgeStyle=none;html=1;exitX=1;exitY=0.5;exitDx=0;exitDy=0;exitPerimeter=0;fontSize=14;fontColor=#F0F0F0;" parent="1" source="129" edge="1">
                    <mxGeometry relative="1" as="geometry">
                        <mxPoint x="410" y="360" as="targetPoint"/>
                        <Array as="points">
                            <mxPoint x="240" y="220"/>
                            <mxPoint x="240" y="360"/>
                        </Array>
                    </mxGeometry>
                </mxCell>
                <mxCell id="129" value="quedan ... intentos" style="verticalLabelPosition=bottom;verticalAlign=top;html=1;shape=card;whiteSpace=wrap;size=20;arcSize=12;fontSize=14;fontColor=#F0F0F0;" parent="1" vertex="1">
                    <mxGeometry x="15" y="190" width="100" height="60" as="geometry"/>
                </mxCell>
            </root>
        </mxGraphModel>
    </diagram>
</mxfile>
